<svg 
   xmlns="http://www.w3.org/2000/svg"
   width="300" height="300" style="fill:none; stroke-linecap:round;">
    <rect width="100%" height="100%" fill="#F3F3F7"></rect>


<path stroke="#663399" stroke-width="2" d="M 150,150 152.3,151.2 154.7,152.4 157.1,153.4 159.5,154.3 162.1,155 164.6,155.6 167.2,156.1 169.8,156.4 172.4,156.6 175,156.7 177.6,156.6 180.2,156.4 182.8,156.1 185.4,155.6 187.9,155 190.5,154.3 192.9,153.4 195.3,152.4 197.7,151.2 200,150 197.7,148.8 195.3,147.6 192.9,146.6 190.5,145.7 187.9,145 185.4,144.4 182.8,143.9 180.2,143.6 177.6,143.4 175,143.3 172.4,143.4 169.8,143.6 167.2,143.9 164.6,144.4 162.1,145 159.5,145.7 157.1,146.6 154.7,147.6 152.3,148.8 150,150 151.9,148.2 153.7,146.3 155.4,144.3 157,142.2 158.5,140.1 159.8,137.8 161.1,135.5 162.2,133.2 163.2,130.8 164.1,128.3 164.8,125.8 165.5,123.2 165.9,120.7 166.3,118.1 166.5,115.5 166.5,112.8 166.5,110.2 166.3,107.6 165.9,105 165.5,102.4 163.6,104.2 161.8,106.1 160.1,108.1 158.5,110.2 157,112.4 155.6,114.6 154.4,116.9 153.2,119.3 152.2,121.7 151.4,124.2 150.6,126.7 150,129.2 149.5,131.8 149.2,134.4 149,137 148.9,139.6 149,142.2 149.2,144.8 149.5,147.4 150,150 148.9,147.6 147.6,145.3 146.3,143.1 144.8,140.9 143.2,138.9 141.5,136.9 139.7,135 137.8,133.2 135.8,131.5 133.7,129.9 131.6,128.4 129.3,127 127,125.8 124.7,124.7 122.2,123.7 119.8,122.8 117.3,122 114.7,121.4 112.1,121 109.5,120.6 110.7,123 111.9,125.3 113.3,127.5 114.8,129.7 116.4,131.7 118.1,133.7 119.9,135.6 121.8,137.4 123.8,139.1 125.8,140.7 128,142.2 130.2,143.6 132.5,144.8 134.9,146 137.3,147 139.8,147.8 142.3,148.6 144.8,149.2 147.4,149.7 150,150 147.4,150.3 144.8,150.8 142.3,151.4 139.8,152.2 137.3,153 134.9,154 132.5,155.2 130.2,156.4 128,157.8 125.8,159.3 123.8,160.9 121.8,162.6 119.9,164.4 118.1,166.3 116.4,168.3 114.8,170.3 113.3,172.5 111.9,174.7 110.7,177 109.5,179.4 112.1,179 114.7,178.6 117.3,178 119.8,177.2 122.2,176.3 124.7,175.3 127,174.2 129.3,173 131.6,171.6 133.7,170.1 135.8,168.5 137.8,166.8 139.7,165 141.5,163.1 143.2,161.1 144.8,159.1 146.3,156.9 147.6,154.7 148.9,152.4 150,150 149.5,152.6 149.2,155.2 149,157.8 148.9,160.4 149,163 149.2,165.6 149.5,168.2 150,170.8 150.6,173.3 151.4,175.8 152.2,178.3 153.2,180.7 154.4,183.1 155.6,185.4 157,187.6 158.5,189.8 160.1,191.9 161.8,193.9 163.6,195.8 165.5,197.6 165.9,195 166.3,192.4 166.5,189.8 166.5,187.2 166.5,184.5 166.3,181.9 165.9,179.3 165.5,176.8 164.8,174.2 164.1,171.7 163.2,169.2 162.2,166.8 161.1,164.5 159.8,162.2 158.5,159.9 157,157.8 155.4,155.7 153.7,153.7 151.9,151.8 150,150 153.2,151.7 156.5,153.3 159.9,154.7 163.4,156 166.9,157 170.4,157.8 174,158.5 177.7,159 181.3,159.3 185,159.4 188.7,159.3 192.3,159 196,158.5 199.6,157.8 203.1,157 206.6,156 210.1,154.7 213.5,153.3 216.8,151.7 220,150 216.8,148.3 213.5,146.7 210.1,145.3 206.6,144 203.1,143 199.6,142.2 196,141.5 192.3,141 188.7,140.7 185,140.6 181.3,140.7 177.7,141 174,141.5 170.4,142.2 166.9,143 163.4,144 159.9,145.3 156.5,146.7 153.2,148.3 150,150 152.7,147.5 155.2,144.8 157.6,142 159.8,139.1 161.9,136.1 163.8,133 165.5,129.8 167.1,126.5 168.5,123.1 169.7,119.6 170.8,116.1 171.6,112.5 172.3,108.9 172.8,105.3 173.1,101.6 173.2,98 173.1,94.3 172.8,90.7 172.3,87 171.6,83.4 169,85.9 166.5,88.6 164.1,91.4 161.8,94.3 159.8,97.3 157.8,100.4 156.1,103.7 154.5,107 153.1,110.4 151.9,113.8 150.9,117.3 150,120.9 149.3,124.5 148.9,128.1 148.6,131.8 148.5,135.4 148.6,139.1 148.9,142.8 149.3,146.4 150,150 148.4,146.7 146.7,143.5 144.8,140.3 142.7,137.3 140.5,134.4 138.1,131.6 135.5,129 132.9,126.5 130.1,124.1 127.2,121.8 124.2,119.8 121.1,117.8 117.8,116.1 114.5,114.5 111.1,113.1 107.7,111.9 104.2,110.9 100.6,110 97,109.3 93.4,108.9 94.9,112.2 96.7,115.4 98.6,118.5 100.7,121.5 102.9,124.4 105.3,127.2 107.8,129.9 110.5,132.4 113.3,134.8 116.2,137 119.2,139.1 122.3,141 125.5,142.8 128.8,144.3 132.2,145.7 135.7,147 139.2,148 142.8,148.9 146.4,149.5 150,150 146.4,150.5 142.8,151.1 139.2,152 135.7,153 132.2,154.3 128.8,155.7 125.5,157.2 122.3,159 119.2,160.9 116.2,163 113.3,165.2 110.5,167.6 107.8,170.1 105.3,172.8 102.9,175.6 100.7,178.5 98.6,181.5 96.7,184.6 94.9,187.8 93.4,191.1 97,190.7 100.6,190 104.2,189.1 107.7,188.1 111.1,186.9 114.5,185.5 117.8,183.9 121.1,182.2 124.2,180.2 127.2,178.2 130.1,175.9 132.9,173.5 135.5,171 138.1,168.4 140.5,165.6 142.7,162.7 144.8,159.7 146.7,156.5 148.4,153.3 150,150 149.3,153.6 148.9,157.2 148.6,160.9 148.5,164.6 148.6,168.2 148.9,171.9 149.3,175.5 150,179.1 150.9,182.7 151.9,186.2 153.1,189.6 154.5,193 156.1,196.3 157.8,199.6 159.8,202.7 161.8,205.7 164.1,208.6 166.5,211.4 169,214.1 171.6,216.6 172.3,213 172.8,209.3 173.1,205.7 173.2,202 173.1,198.4 172.8,194.7 172.3,191.1 171.6,187.5 170.8,183.9 169.7,180.4 168.5,176.9 167.1,173.5 165.5,170.2 163.8,167 161.9,163.9 159.8,160.9 157.6,158 155.2,155.2 152.7,152.5 150,150 145.7,159.5 143.6,169.8 143.6,180.2 145.7,190.5 150,200 156.1,208.5 163.9,215.5 173,220.7 182.9,223.9 193.3,225 203.7,223.9 213.6,220.7 222.7,215.5 230.5,208.5 236.6,200 240.9,190.5 243,180.2 243,169.8 240.9,159.5 236.6,150 240.9,140.5 243,130.2 243,119.8 240.9,109.5 236.6,100 230.5,91.5 222.7,84.5 213.6,79.3 203.7,76.1 193.3,75 182.9,76.1 173,79.3 163.9,84.5 156.1,91.5 150,100 145.7,109.5 143.6,119.8 143.6,130.2 145.7,140.5 150,150 157.8,157 166.8,162.2 176.8,165.5 187.2,166.5 197.6,165.5 207.5,162.2 216.5,157 224.3,150 230.5,141.5 234.7,132 236.9,121.8 236.9,111.3 234.7,101.1 230.5,91.5 224.3,83.1 216.5,76.1 207.5,70.9 197.6,67.6 187.2,66.5 176.8,67.6 169,60.6 159.9,55.4 150,52.2 139.6,51.1 129.2,52.2 119.3,55.4 110.2,60.6 102.4,67.6 96.3,76.1 92.1,85.6 89.9,95.9 89.9,106.3 92.1,116.5 96.3,126.1 102.4,134.5 110.2,141.5 119.3,146.8 129.2,150 139.6,151.1 150,150 159.1,144.8 166.8,137.8 173,129.3 177.2,119.8 179.4,109.5 179.4,99.1 177.2,88.9 173,79.3 166.8,70.9 159.1,63.9 150,58.6 140.1,55.4 129.7,54.3 119.3,55.4 109.3,58.6 100.3,63.9 92.5,70.9 86.4,79.3 82.1,88.9 79.9,99.1 70.9,104.3 63.1,111.3 57,119.8 52.7,129.3 50.5,139.5 50.5,150 52.7,160.2 57,169.8 63.1,178.2 70.9,185.2 79.9,190.5 89.9,193.7 100.3,194.8 110.7,193.7 120.6,190.5 129.7,185.2 137.4,178.2 143.6,169.8 147.8,160.2 150,150 147.8,139.8 143.6,130.2 137.4,121.8 129.7,114.8 120.6,109.5 110.7,106.3 100.3,105.2 89.9,106.3 79.9,109.5 70.9,114.8 63.1,121.8 57,130.2 52.7,139.8 50.5,150 50.5,160.5 52.7,170.7 57,180.2 63.1,188.7 70.9,195.7 79.9,200.9 82.1,211.1 86.4,220.7 92.5,229.1 100.3,236.1 109.3,241.4 119.3,244.6 129.7,245.7 140.1,244.6 150,241.4 159.1,236.1 166.8,229.1 173,220.7 177.2,211.1 179.4,200.9 179.4,190.5 177.2,180.2 173,170.7 166.8,162.2 159.1,155.2 150,150 139.6,148.9 129.2,150 119.3,153.2 110.2,158.5 102.4,165.5 96.3,173.9 92.1,183.5 89.9,193.7 89.9,204.1 92.1,214.4 96.3,223.9 102.4,232.4 110.2,239.4 119.3,244.6 129.2,247.8 139.6,248.9 150,247.8 159.9,244.6 169,239.4 176.8,232.4 187.2,233.5 197.6,232.4 207.5,229.1 216.5,223.9 224.3,216.9 230.5,208.5 234.7,198.9 236.9,188.7 236.9,178.2 234.7,168 230.5,158.5 224.3,150 216.5,143 207.5,137.8 197.6,134.5 187.2,133.5 176.8,134.5 166.8,137.8 157.8,143 150,150"></path>'

<g transform="rotate(-90.0,150.0,150.0) translate(150.0, 150.0)">
    <circle stroke="#63A375" stroke-width="2" fill="transparent" r="5.5" cx="0" cy="0"></circle>
    <polygon points="0,12 2,9 -2,9" style="fill:#63A375;stroke:#63A375;stroke-width:2"></polygon>
</g>

</svg>