<svg 
   xmlns="http://www.w3.org/2000/svg"
   width="300" height="300" style="fill:none; stroke-linecap:round;">
    <rect width="100%" height="100%" fill="#F3F3F7"></rect>


<path stroke="#663399" stroke-width="2" d="M 150,150 155.2,154.8 160.7,159.2 166.6,163.1 172.8,166.6 179.2,169.5 185.8,172 192.6,173.9 199.6,175.3 206.6,176.1 213.6,176.4 220.7,176.1 227.7,175.3 234.6,173.9 241.5,172 248.1,169.5 254.5,166.6 260.7,163.1 266.5,159.2 272.1,154.8 277.3,150 272.1,145.2 266.5,140.8 260.7,136.9 254.5,133.4 248.1,130.5 241.5,128 234.6,126.1 227.7,124.7 220.7,123.9 213.6,123.6 206.6,123.9 199.6,124.7 192.6,126.1 185.8,128 179.2,130.5 172.8,133.4 166.6,136.9 160.7,140.8 155.2,145.2 150,150 154.6,157 159.8,163.5 165.8,169.5 172.3,174.7 179.3,179.3 186.7,183.1 194.6,186.1 202.6,188.3 210.9,189.6 219.3,190 227.6,189.6 235.9,188.3 244,186.1 251.8,183.1 259.3,179.3 266.3,174.7 272.8,169.5 278.7,163.5 284,157 288.6,150 284,143 278.7,136.5 272.8,130.5 266.3,125.3 259.3,120.7 251.8,116.9 244,113.9 235.9,111.7 227.6,110.4 219.3,110 210.9,110.4 202.6,111.7 194.6,113.9 186.7,116.9 179.3,120.7 172.3,125.3 165.8,130.5 159.8,136.5 154.6,143 150,150"></path>'

<g transform="rotate(-90.0,150.0,150.0) translate(150.0, 150.0)">
    <circle stroke="#63A375" stroke-width="2" fill="transparent" r="5.5" cx="0" cy="0"></circle>
    <polygon points="0,12 2,9 -2,9" style="fill:#63A375;stroke:#63A375;stroke-width:2"></polygon>
</g>

</svg>