<svg 
   xmlns="http://www.w3.org/2000/svg"
   width="300" height="300" style="fill:none; stroke-linecap:round;">
    <rect width="100%" height="100%" fill="#F3F3F7"></rect>


<path stroke="#663399" stroke-width="2" d="M 150,150 155,150 154.1,140 139.4,142.6 144.5,162 168,153.4 155.3,126.2 125,143.7 148,176.5 182.5,147.6 147.1,112.2 111.7,154.3 160.9,188.8 193.4,132.5 129.9,102.9 104.3,173.4 181.6,194.1 196.3,110.4 106.7,102.5 106.7,197.5 206.3,188.8 188.1,85.4 81.8,113.9 121.1,221.9 229.9,171.2 167.4,63 60.9,137.5 147.7,240.9 246.7,141.9 135.6,48.7 49.6,171.6 183.8,249.1 251.4,104.1 96.4,47.7 52.4,211.9 224.7,242.3 240.4,62.9 55.4,62.9 72,252.2 264,218.4"></path>'

<g transform="rotate(165.0,264.0,218.4) translate(264.0, 218.4)">
    <circle stroke="#63A375" stroke-width="2" fill="transparent" r="5.5" cx="0" cy="0"></circle>
    <polygon points="0,12 2,9 -2,9" style="fill:#63A375;stroke:#63A375;stroke-width:2"></polygon>
</g>

</svg>