<svg width="400" height="400" xmlns="http://www.w3.org/2000/svg" style="fill:none; stroke-linecap:round;">
    <rect width="100%" height="100%" fill="#F3F3F7" />


<path stroke="#663399" stroke-width="2" d="M 200,200 250,200 250,140 180,140 180,220 270,220 270,120 160,120 160,240 290,240 290,100 140,100 140,260 310,260 310,80 120,80 120,280 330,280 330,60 100,60 100,300" />'

<g transform="rotate(-90.0,100.0,300.0) translate(100.0, 300.0)">
    <circle stroke="#63A375" stroke-width="2" fill="transparent" r="5.5" cx="0" cy="0"/>
    <polygon points="0,12 2,9 -2,9" style="fill:#63A375;stroke:#63A375;stroke-width:2"/>
</g>

</svg>