<svg 
   xmlns="http://www.w3.org/2000/svg"
   width="300" height="300" style="fill:none; stroke-linecap:round;">
    <rect width="100%" height="100%" fill="#F3F3F7"></rect>


<path stroke="#663399" stroke-width="2" d="M 150,150 200,150 200,200 150,200 150,150 200,150 215.5,102.4 263,117.9 247.6,165.5 200,150 215.5,102.4 175,73.1 204.4,32.6 244.8,62 215.5,102.4 175,73.1 134.5,102.4 105.2,62 145.6,32.6 175,73.1 134.5,102.4 150,150 102.4,165.5 87,117.9 134.5,102.4 150,150"></path>'

<g transform="rotate(-90.0,150.0,150.0) translate(150.0, 150.0)">
    <circle stroke="#63A375" stroke-width="2" fill="transparent" r="5.5" cx="0" cy="0"></circle>
    <polygon points="0,12 2,9 -2,9" style="fill:#63A375;stroke:#63A375;stroke-width:2"></polygon>
</g>

</svg>