<svg 
   xmlns="http://www.w3.org/2000/svg"
   width="300" height="300" style="fill:none; stroke-linecap:round;">
    <rect width="100%" height="100%" fill="#F3F3F7"></rect>


<path stroke="#663399" stroke-width="2" d="M 150,150"></path>'

<path stroke="#663399" stroke-width="2" d="M 250,150"></path>'

<path stroke="#663399" stroke-width="2" d="M 250,75 50,75 50,225 250,225 250,75"></path>'

<path stroke="#663399" stroke-width="2" d="M 250,150"></path>'

<path stroke="#663399" stroke-width="2" d="M 150,150"></path>'

<path stroke="#663399" stroke-width="2" d="M 206.2,150"></path>'

<path stroke="#663399" stroke-width="2" d="M 206.2,75 93.7,75 93.7,225 206.2,225 206.2,75"></path>'

<path stroke="#663399" stroke-width="2" d="M 206.2,150"></path>'

<path stroke="#663399" stroke-width="2" d="M 150,150"></path>'

<path stroke="#663399" stroke-width="2" d="M 206.2,150"></path>'

<path stroke="#663399" stroke-width="2" d="M 206.2,107.8 93.7,107.8 93.7,192.2 206.2,192.2 206.2,107.8"></path>'

<path stroke="#663399" stroke-width="2" d="M 206.2,150"></path>'

<path stroke="#663399" stroke-width="2" d="M 150,150"></path>'

<path stroke="#663399" stroke-width="2" d="M 181.6,150"></path>'

<path stroke="#663399" stroke-width="2" d="M 181.6,107.8 118.4,107.8 118.4,192.2 181.6,192.2 181.6,107.8"></path>'

<path stroke="#663399" stroke-width="2" d="M 181.6,150"></path>'

<path stroke="#663399" stroke-width="2" d="M 150,150"></path>'

<path stroke="#663399" stroke-width="2" d="M 181.6,150"></path>'

<path stroke="#663399" stroke-width="2" d="M 181.6,126.3 118.4,126.3 118.4,173.7 181.6,173.7 181.6,126.3"></path>'

<path stroke="#663399" stroke-width="2" d="M 181.6,150"></path>'

<path stroke="#663399" stroke-width="2" d="M 150,150"></path>'

<g transform="rotate(-90.0,150.0,150.0) translate(150.0, 150.0)">
    <circle stroke="#63A375" stroke-width="2" fill="transparent" r="5.5" cx="0" cy="0"></circle>
    <polygon points="0,12 2,9 -2,9" style="fill:#63A375;stroke:#63A375;stroke-width:2"></polygon>
</g>

</svg>