<svg 
   xmlns="http://www.w3.org/2000/svg"
   width="300" height="300" style="fill:none; stroke-linecap:round;">

    <rect width="100%" height="100%" fill="#F3F3F7"></rect>

<path stroke="#663399" stroke-width="2" d="M 150,150 200,150 175,193.3 150,150 200,150 231.2,110.9 249.4,157.5 200,150 231.2,110.9 220,62.2 267.8,76.9 231.2,110.9 220,62.2 175,40.5 216.3,12.3 220,62.2 175,40.5 130,62.2 133.7,12.3 175,40.5 130,62.2 118.8,110.9 82.2,76.9 130,62.2 118.8,110.9 150,150 100.6,157.5 118.8,110.9 150,150"></path>'

<g transform="rotate(270.0,150.0,150.0) translate(150.0, 150.0)">
    <circle stroke="#63A375" stroke-width="2" fill="transparent" r="5.5" cx="0" cy="0"></circle>
    <polygon points="0,12 2,9 -2,9" style="fill:#63A375;stroke:#63A375;stroke-width:2"></polygon>
</g>

</svg>