<svg 
   xmlns="http://www.w3.org/2000/svg"
   width="300" height="300" style="fill:none; stroke-linecap:round;">

    <rect width="100%" height="100%" fill="#F3F3F7"></rect>


<path stroke="#663399" stroke-width="2" d="M 150,150 157.8,149.4 165.5,147.6 172.7,144.6 179.4,140.5 185.4,135.4 190.5,129.4 194.6,122.7 197.6,115.5 199.4,107.8 200,100 199.4,92.2 197.6,84.5 194.6,77.3 190.5,70.6 185.4,64.6 179.4,59.5 172.7,55.4 165.5,52.4 157.8,50.6 150,50"></path>'

<g transform="rotate(90.0,150.0,50.0) translate(150.0, 50.0)">
    <circle stroke="#63A375" stroke-width="2" fill="transparent" r="5.5" cx="0" cy="0"></circle>
    <polygon points="0,12 2,9 -2,9" style="fill:#63A375;stroke:#63A375;stroke-width:2"></polygon>
</g>

</svg>